<?xml version="1.0" standalone="no"?>
<!DOCTYPE svg PUBLIC "-//W3C//DTD SVG 20010904//EN"
 "http://www.w3.org/TR/2001/REC-SVG-20010904/DTD/svg10.dtd">
<svg version="1.0" xmlns="http://www.w3.org/2000/svg"
 width="300.000000pt" height="168.000000pt" viewBox="0 0 300.000000 168.000000"
 preserveAspectRatio="xMidYMid meet">
<metadata>
Created by potrace 1.10, written by Peter Selinger 2001-2011
</metadata>
<g transform="translate(0.000000,168.000000) scale(0.050000,-0.050000)"
fill="#000000" stroke="none">
<path d="M2578 3271 c-392 -65 -730 -249 -788 -430 -34 -107 -104 60 -124 299
l-13 150 -57 -128 c-177 -398 -204 -825 -74 -1194 172 -490 512 -956 1187
-1628 l291 -289 281 279 c1167 1160 1513 2021 1149 2860 l-35 80 -29 -140
c-15 -77 -50 -189 -77 -250 l-49 -110 60 65 c84 92 75 34 -18 -109 -102 -159
-122 -169 -122 -65 0 156 -84 270 -280 378 -125 69 -121 83 5 18 46 -23 141
-97 210 -163 130 -125 145 -131 96 -37 -166 322 -949 523 -1613 414z m754 -73
c87 -24 183 -47 213 -53 118 -21 271 -269 252 -407 -6 -43 -12 -39 -60 42
-314 535 -1187 552 -1468 30 -45 -83 -64 -88 -81 -21 -16 65 51 204 137 283
156 144 689 211 1007 126z m-1169 -128 c-243 -113 -356 -266 -338 -455 l10
-103 -40 49 c-96 115 -192 387 -99 279 l59 -69 139 130 c130 123 278 216 346
218 17 0 -18 -22 -77 -49z m1004 -113 c62 -12 113 -31 113 -41 0 -10 11 -12
25 -3 19 11 20 8 2 -14 -25 -31 -13 -139 15 -139 10 0 18 -14 18 -31 0 -17 19
-67 42 -112 l41 -82 -65 -67 c-36 -38 -57 -68 -47 -69 10 0 3 -9 -16 -21 -19
-11 -35 -35 -35 -53 0 -26 -5 -28 -24 -9 -30 30 -125 31 -173 1 -28 -18 -61
-17 -133 1 -102 26 -190 -19 -190 -96 -1 -28 -3 -28 -20 -2 -15 24 -19 19 -20
-22 0 -32 -11 -51 -30 -51 -38 0 -38 51 1 102 62 82 -39 238 -196 300 -130 53
-140 66 -100 133 18 32 40 58 48 58 8 0 20 18 27 40 7 21 23 37 36 35 13 -3
22 7 19 21 -4 15 3 21 15 14 11 -7 20 -1 20 12 0 14 5 19 12 13 6 -6 51 6 100
28 167 74 331 91 515 54z m845 -181 c78 -149 -75 -436 -232 -436 -17 0 -20
-21 -12 -68 10 -50 -3 -113 -47 -233 -79 -216 -70 -216 71 0 142 216 151 220
115 46 -69 -331 -203 -562 -208 -359 -1 43 -2 43 -35 -6 -19 -27 -72 -91 -119
-142 -101 -109 -105 -125 -25 -108 71 16 74 2 30 -141 -21 -71 -73 -149 -185
-278 l-155 -178 -6 142 -6 142 -59 -17 c-60 -17 -69 -8 -47 48 14 37 110 43
171 10 57 -30 65 -12 28 60 -23 44 -46 62 -82 62 -62 0 -61 17 4 146 96 190
209 352 305 438 92 83 200 297 136 269 -13 -5 -135 -61 -271 -123 -136 -62
-249 -110 -252 -106 -15 16 -23 316 -9 316 8 0 29 -49 47 -108 l31 -108 215
111 c266 137 265 137 143 128 -92 -6 -158 17 -158 57 0 8 45 21 99 28 330 44
514 274 391 489 -28 48 -50 92 -50 99 0 24 144 -127 172 -180z m-1925 71
c-111 -220 66 -436 395 -479 110 -15 121 -32 49 -79 -102 -67 -368 28 -509
181 -123 133 -115 258 24 405 85 90 97 81 41 -28z m1439 -74 c110 -135 142
-213 86 -213 -15 0 -39 29 -54 64 -15 36 -65 112 -112 170 -47 58 -86 110 -86
116 0 25 103 -60 166 -137z m-1988 -85 c-93 -657 223 -1272 1132 -2204 154
-158 285 -293 290 -299 77 -92 -229 197 -400 379 -867 916 -1190 1604 -1037
2208 33 134 40 95 15 -84z m2956 -208 c-19 -477 -196 -887 -607 -1405 -215
-270 -697 -792 -795 -860 -34 -23 64 87 218 246 884 913 1197 1502 1164 2189
-8 167 -5 203 10 150 12 -40 16 -177 10 -320z m-135 -140 c-88 -556 -700
-1498 -1262 -1942 -104 -83 -109 -92 210 352 143 198 280 389 304 425 26 37
56 126 69 206 20 117 32 145 69 159 146 55 290 423 291 740 0 61 11 77 93 128
50 33 125 104 164 160 l73 101 7 -89 c3 -50 -4 -157 -18 -240z m-2687 215 c60
-119 174 -240 262 -279 77 -34 86 -45 86 -106 0 -224 128 -559 232 -610 57
-27 66 -47 107 -215 50 -205 145 -367 458 -773 205 -267 212 -281 72 -154
-758 686 -1209 1415 -1261 2037 -15 180 -6 199 44 100z m1217 -465 c-14 -154
-14 -154 -54 -114 -39 39 -39 42 -5 147 63 192 80 182 59 -33z m-639 30 c-7
-11 2 -20 20 -20 18 0 27 9 20 20 -7 11 1 14 19 8 17 -7 31 -21 31 -31 0 -10
24 -16 53 -13 43 5 56 -4 68 -49 9 -30 8 -55 -2 -55 -27 0 22 -104 74 -155 25
-25 57 -45 71 -45 21 -1 21 -4 1 -17 -33 -21 18 -69 114 -110 77 -32 153 -12
167 45 5 17 6 2 2 -35 -10 -105 13 -185 60 -203 33 -14 35 -18 8 -19 -22 -1
-31 -12 -23 -31 6 -16 20 -24 31 -18 12 8 16 -38 10 -125 -7 -106 -1 -153 27
-207 55 -108 119 -251 119 -267 0 -33 -92 -153 -118 -153 -32 0 -175 140 -167
165 3 9 -29 63 -71 121 -124 167 -226 335 -215 352 5 9 -3 33 -19 54 -16 21
-29 65 -29 99 -1 72 -92 223 -171 285 -30 24 -50 44 -44 44 7 0 3 27 -9 60
-12 33 -28 60 -38 60 -9 0 -17 25 -18 55 -5 114 -10 145 -26 145 -21 0 29 58
51 59 9 1 11 -8 4 -19z m367 -137 c29 -21 91 -57 138 -81 89 -45 96 -54 66
-101 -14 -23 -30 -17 -85 30 -37 33 -101 82 -141 109 -41 28 -75 57 -75 65 0
26 42 16 97 -22z m883 29 c0 -11 -275 -232 -289 -232 -75 0 7 100 134 164 161
82 155 79 155 68z m-385 -335 l42 -143 -42 -57 c-62 -83 -65 -77 -69 143 -4
237 13 251 69 57z"/>
<path d="M3180 125 c1 -30 3 -31 20 -5 13 20 19 22 20 5 0 -14 14 -25 30 -25
40 0 38 32 -2 48 -51 20 -68 14 -68 -23z"/>
</g>
</svg>
